<?xml version="1.0" encoding="utf-8"?>
<!-- Generator: Adobe Illustrator 16.0.0, SVG Export Plug-In . SVG Version: 6.00 Build 0)  -->
<!DOCTYPE svg PUBLIC "-//W3C//DTD SVG 1.1//EN" "http://www.w3.org/Graphics/SVG/1.1/DTD/svg11.dtd">
<svg version="1.1" id="Layer_1" xmlns="http://www.w3.org/2000/svg" xmlns:xlink="http://www.w3.org/1999/xlink" x="0px" y="0px"
	 width="200px" height="160px" viewBox="0 0 200 160" enable-background="new 0 0 200 160" xml:space="preserve">
<g>
	<path fill="#FFFFFF" d="M92.495,93.345c-0.964-0.923-1.848-1.768-2.612-2.529c-7.8-7.798-19.692-27.559-19.812-27.759
		c-0.286-0.479-0.847-0.708-1.406-0.562c-0.54,0.151-0.916,0.645-0.916,1.206v6.807c-8.232,0.781-12,9.272-12,17.192
		c0,2.9,3.484,4.062,6.851,5.186c2.173,0.723,5.149,1.714,5.149,2.817c0,1.26-0.604,2.139-1.26,3.042
		c-2.001,2.759-2.739,5.089-2.739,9.507c0,0.688,0.559,1.226,1.25,1.226s1.25-0.586,1.25-1.274c-0.106-3.488,0.57-5.718,2.28-8.013
		c0.794-1.066,1.719-2.432,1.719-4.487c0-2.905-3.486-4.067-6.858-5.19c-2.17-0.723-5.142-1.714-5.142-2.812
		c0-7.104,3.364-14.751,10.75-14.751c0.691,0,1.25-0.562,1.25-1.25v-3.584c3.901,6.226,11.897,18.501,17.866,24.468
		c0.776,0.776,1.672,1.636,2.654,2.568c6.921,6.611,17.385,16.606,17.932,28.804c0.029,0.674,0.581,1.196,1.248,1.196
		c0.017,0,0.036,0,0.056,0c0.688-0.034,1.224-0.615,1.191-1.304C110.605,110.64,99.27,99.814,92.495,93.345z"/>
	<path fill="#FFFFFF" d="M100,28.75c-28.259,0-51.25,22.988-51.25,51.25s22.991,51.25,51.25,51.25
		c8.574,0,17.036-2.163,24.526-6.255c10.62,6.182,24.86,6.255,25.474,6.255c1.14,0,1.643-1.374,0.884-2.134
		c-6.242-6.246-8.425-14.639-9.173-19.395c6.243-8.691,9.539-18.955,9.539-29.722C151.25,51.738,128.26,28.75,100,28.75z
		 M139.393,108.662c-0.193,0.264-0.276,0.591-0.23,0.918c0.641,4.434,2.506,12.397,7.906,19.033
		c-4.798-0.356-14.521-1.616-21.865-6.128c-0.384-0.234-0.875-0.244-1.27-0.024c-7.271,4.116-15.547,6.289-23.934,6.289
		c-26.88,0-48.75-21.87-48.75-48.75S73.12,31.25,100,31.25S148.75,53.12,148.75,80C148.75,90.405,145.516,100.317,139.393,108.662z"
		/>
	<path fill="#FFFFFF" d="M120.649,44.399c0-1.938-1.237-3.623-3.052-4.185l-17-5.698c-0.454-0.146-0.945-0.034-1.282,0.303
		l-4.502,4.497c-0.972,0.977-2.307,1.533-3.665,1.533H80.999c-0.691,0-1.25,0.562-1.25,1.25v6.401c0,4.048,4.468,5.835,8.789,7.563
		c3.545,1.416,7.212,2.881,7.212,5.234c0,2.09-1.233,5.176-2.795,9.082c-1.519,3.799-3.406,8.521-4.768,13.97
		c-0.166,0.669,0.242,1.348,0.911,1.514c0.671,0.19,1.35-0.244,1.516-0.908c1.318-5.283,3.174-9.922,4.663-13.647
		c1.66-4.155,2.974-7.437,2.974-10.01c0-4.043-4.465-5.83-8.784-7.559c-3.547-1.416-7.217-2.886-7.217-5.239V43.35h8.901
		c2.017,0,3.997-0.825,5.432-2.266l3.955-3.95l16.294,5.464c0.788,0.239,1.318,0.967,1.318,1.802v16.895
		c-0.005,0.527-0.188,5.156-5.149,5.156c-2.424,0-4.138-0.742-5.241-2.271c-3.418-4.741-0.007-15.181,0.026-15.283
		c0.218-0.654-0.137-1.362-0.791-1.582c-0.666-0.229-1.364,0.137-1.582,0.791c-0.158,0.479-3.848,11.758,0.318,17.534
		c1.584,2.197,4.03,3.311,7.27,3.311c2.322,0,3.98-0.742,5.149-1.801v6.952c0,0.195,0.046,0.386,0.132,0.557l16.499,32.998
		c0.347,0.669,1.091,0.847,1.677,0.562c0.621-0.302,0.867-1.06,0.56-1.675l-16.367-32.734V44.399z"/>
</g>
</svg>
