<?xml version="1.0" encoding="utf-8"?>
<!-- Generator: Adobe Illustrator 16.0.0, SVG Export Plug-In . SVG Version: 6.00 Build 0)  -->
<!DOCTYPE svg PUBLIC "-//W3C//DTD SVG 1.1//EN" "http://www.w3.org/Graphics/SVG/1.1/DTD/svg11.dtd">
<svg version="1.1" id="Layer_1" xmlns="http://www.w3.org/2000/svg" xmlns:xlink="http://www.w3.org/1999/xlink" x="0px" y="0px"
	 width="30px" height="30px" viewBox="0 0 30 30" enable-background="new 0 0 30 30" xml:space="preserve">
<g>
	<circle id="XMLID_49_" fill="#43BDEF" cx="14.74" cy="15" r="13"/>
	<path id="XMLID_47_" fill="#FFFFFF" d="M22.44,11.034c-0.566,0.248-1.175,0.414-1.814,0.489c0.653-0.385,1.153-0.994,1.39-1.721
		c-0.61,0.357-1.287,0.616-2.007,0.755c-0.576-0.604-1.397-0.982-2.306-0.982c-1.745,0-3.159,1.393-3.159,3.11
		c0,0.244,0.028,0.48,0.081,0.708c-2.625-0.129-4.954-1.368-6.511-3.25c-0.271,0.459-0.428,0.994-0.428,1.563
		c0,1.079,0.559,2.03,1.406,2.588C8.574,14.28,8.086,14.14,7.66,13.908c0,0.013,0,0.026,0,0.039c0,0.398,0.078,0.777,0.216,1.127
		c0.386,0.975,1.255,1.711,2.319,1.923c-0.266,0.07-0.544,0.109-0.833,0.109c-0.203,0-0.4-0.021-0.594-0.057
		c0.403,1.235,1.569,2.135,2.952,2.159c-1.082,0.835-2.443,1.332-3.924,1.332c-0.255,0-0.506-0.015-0.754-0.044
		c1.399,0.883,3.061,1.397,4.844,1.397c4.938,0,7.974-3.422,8.774-6.971c0.142-0.627,0.215-1.259,0.215-1.877
		c0-0.134-0.002-0.269-0.008-0.402C21.481,12.206,22.018,11.658,22.44,11.034z"/>
</g>
</svg>
