<?xml version="1.0" encoding="utf-8"?>
<!-- Generator: Adobe Illustrator 16.0.0, SVG Export Plug-In . SVG Version: 6.00 Build 0)  -->
<!DOCTYPE svg PUBLIC "-//W3C//DTD SVG 1.1//EN" "http://www.w3.org/Graphics/SVG/1.1/DTD/svg11.dtd">
<svg version="1.1" id="Layer_1" xmlns="http://www.w3.org/2000/svg" xmlns:xlink="http://www.w3.org/1999/xlink" x="0px" y="0px"
	 width="30px" height="30px" viewBox="0 0 30 30" enable-background="new 0 0 30 30" xml:space="preserve">
<circle fill="none" stroke="#FFFFFF" stroke-miterlimit="10" cx="15" cy="15" r="13"/>
<g>
	<path fill="#FFFFFF" d="M19.559,17.221c-0.896,0-1.697,0.428-2.209,1.088l-4.282-2.392c0.101-0.288,0.156-0.6,0.156-0.92
		c0-0.324-0.055-0.631-0.159-0.923l4.279-2.39c0.51,0.664,1.312,1.095,2.211,1.095c1.535,0,2.789-1.25,2.789-2.788
		c0-1.537-1.25-2.787-2.789-2.787c-1.537,0-2.787,1.25-2.787,2.787c0,0.324,0.055,0.635,0.158,0.923l-4.276,2.39
		c-0.508-0.667-1.312-1.095-2.211-1.095c-1.535,0-2.788,1.25-2.788,2.788c0,1.539,1.253,2.789,2.791,2.789
		c0.9,0,1.703-0.432,2.215-1.098l4.279,2.393c-0.104,0.291-0.162,0.605-0.162,0.928c0,1.535,1.25,2.789,2.789,2.789
		c1.537,0,2.787-1.25,2.787-2.789C22.35,18.471,21.096,17.221,19.559,17.221L19.559,17.221z M19.559,8.081
		c1.055,0,1.914,0.858,1.914,1.914s-0.859,1.913-1.914,1.913s-1.912-0.857-1.912-1.913S18.506,8.081,19.559,8.081L19.559,8.081z
		 M10.441,16.91c-1.055,0-1.913-0.857-1.913-1.914c0-1.056,0.858-1.913,1.913-1.913c1.056,0,1.914,0.857,1.914,1.913
		C12.355,16.053,11.494,16.91,10.441,16.91L10.441,16.91z M19.559,21.918c-1.055,0-1.912-0.857-1.912-1.912
		c0-1.057,0.857-1.914,1.912-1.914s1.914,0.857,1.914,1.914C21.473,21.061,20.613,21.918,19.559,21.918L19.559,21.918z
		 M19.559,21.918"/>
</g>
<circle fill="#FFFFFF" cx="19.583" cy="19.959" r="2.167"/>
<circle fill="#FFFFFF" cx="10.479" cy="14.943" r="2.354"/>
<circle fill="#FFFFFF" cx="19.583" cy="9.92" r="2.255"/>
</svg>
