<?xml version="1.0" encoding="utf-8"?>
<!-- Generator: Adobe Illustrator 16.0.0, SVG Export Plug-In . SVG Version: 6.00 Build 0)  -->
<!DOCTYPE svg PUBLIC "-//W3C//DTD SVG 1.1//EN" "http://www.w3.org/Graphics/SVG/1.1/DTD/svg11.dtd">
<svg version="1.1" id="Layer_1" xmlns="http://www.w3.org/2000/svg" xmlns:xlink="http://www.w3.org/1999/xlink" x="0px" y="0px"
	 width="200px" height="160px" viewBox="0 0 200 160" enable-background="new 0 0 200 160" xml:space="preserve">
<g>
	<path fill="#FFFFFF" d="M66.247,128.5c0,2.067,1.685,3.75,3.75,3.75h24.996c2.739,0,5.072-1.771,5.912-4.227
		c8.807,3.943,39.1,3.73,47.266,0.843c0.713-0.249,2.871-1.014,3.057-2.734c0.059-0.574-0.117-1.116-0.508-1.575
		c-1.576-1.836-6.986-2.166-17.213-2.637c-10.857-0.501-27.266-1.255-27.266-5.921c0-10.262-9.794-25.069-10.131-25.561
		L81.244,60.701V37.797c0-1.616-1.03-3.047-2.563-3.558l-13.289-4.431c-0.459-0.137-0.942-0.032-1.279,0.303l-3.539,3.537
		c-0.708,0.708-1.646,1.097-2.641,1.097H50c-0.688,0-1.25,0.56-1.25,1.25v5c0,3.348,3.739,4.842,7.035,6.16
		c2.685,1.077,5.463,2.188,5.463,3.841c0,1.589-0.966,3.992-2.187,7.034c-2.241,5.576-5.312,13.216-5.312,22.967
		c0,15.229,0,15.519,5.365,20.885c3.081,3.079-1.245,15.357-4.892,22.868H52.5c-2.065,0-3.75,1.682-3.75,3.75
		c0,2.067,1.684,3.75,3.75,3.75h5.926c1.465,0,2.763-0.815,3.383-2.124c2.211-4.637,9.437-20.44,9.437-29.128v-1.159
		c0.841,1.527,1.81,2.975,2.768,4.402c0.248,0.373,0.494,0.746,0.74,1.119c-1.49,2.383-2.258,5.265-2.258,8.139
		c0,4.297,1.699,8.628,4.999,11.251h-7.499C67.931,124.75,66.247,126.432,66.247,128.5z M84.994,124.75
		c-6.869,0-9.999-5.833-9.999-11.251c0-2.991,0.903-5.767,2.539-7.812c1.797-2.249,4.379-3.438,7.46-3.438
		c0.688,0,1.25-0.559,1.25-1.25c0-0.69-0.561-1.25-1.25-1.25c-3.67,0-6.551,1.39-8.621,3.529c-0.095-0.143-0.188-0.286-0.284-0.429
		c-2.49-3.716-4.843-7.227-4.843-11.851V80.997c0-0.69-0.562-1.25-1.25-1.25s-1.25,0.56-1.25,1.25v20.001
		c0,8.162-7.035,23.532-9.193,28.051c-0.205,0.433-0.64,0.701-1.128,0.701H52.5c-0.688,0-1.25-0.562-1.25-1.25s0.562-1.25,1.25-1.25
		h2.5c0.473,0,0.908-0.269,1.118-0.691c1.064-2.129,10.242-20.965,4.765-26.444c-4.633-4.634-4.633-4.634-4.633-19.117
		c0-9.268,2.963-16.646,5.131-22.034c1.323-3.294,2.368-5.895,2.368-7.967c0-3.348-3.739-4.842-7.035-6.16
		c-2.685-1.077-5.463-2.188-5.463-3.841v-3.75h6.684c1.665,0,3.231-0.649,4.408-1.829l2.993-2.99l12.556,4.188
		c0.513,0.168,0.854,0.645,0.854,1.184v13.191c-0.005,0.628-0.22,3.758-3.75,3.758c-1.796,0-3.066-0.542-3.871-1.66
		c-2.148-2.979-0.688-9.454,0.059-11.695c0.214-0.656-0.137-1.362-0.791-1.582c-0.649-0.212-1.362,0.137-1.582,0.791
		c-0.127,0.379-3.051,9.319,0.283,13.946c1.294,1.792,3.281,2.7,5.902,2.7c1.61,0,2.833-0.436,3.75-1.097v4.847
		c0,0.193,0.044,0.386,0.132,0.56l15.075,30.136c0.098,0.146,9.789,14.806,9.789,24.308c0,7.054,15.075,7.747,29.648,8.419
		c5.662,0.261,13.273,0.61,15.119,1.55c-0.621,0.403-2.578,1.277-8.402,1.904c-14.768,1.592-36.404,0.068-39.231-2.756
		c-0.361-0.361-0.894-0.472-1.362-0.271c-0.468,0.193-0.771,0.649-0.771,1.155c0,2.067-1.685,3.75-3.75,3.75H69.996
		c-0.688,0-1.25-0.562-1.25-1.25s0.561-1.25,1.25-1.25h14.998c0.688,0,1.25-0.56,1.25-1.25
		C86.243,125.309,85.682,124.75,84.994,124.75z"/>
	<path fill="#FFFFFF" d="M83.827,56.801c-0.247,0.645,0.073,1.367,0.718,1.616c2.395,0.923,4.831,3.174,6.525,6.03
		c2.446,4.062,2.954,8.784,1.206,11.226c-0.403,0.562-0.273,1.365,0.288,1.743c0.79,0.531,1.499,0.054,1.743-0.288
		c2.341-3.271,1.89-9.014-1.091-13.965c-1.995-3.364-4.829-5.947-7.773-7.08C84.794,55.829,84.076,56.156,83.827,56.801z"/>
	<path fill="#FFFFFF" d="M103.848,60.966c5.709-1.111,8.785-8.887,7.023-17.598c-1.698-8.811-7.9-14.607-13.317-13.477
		c-5.693,1.188-8.76,8.881-7.023,17.598C92.128,55.502,97.674,62.167,103.848,60.966z M98.052,32.343
		c4.106-0.843,8.855,4.262,10.368,11.523c1.436,7.095-0.887,13.804-5.07,14.648c-4.201,0.83-8.93-4.429-10.368-11.523
		C91.546,39.896,93.871,33.2,98.052,32.343z"/>
	<path fill="#FFFFFF" d="M113.489,66.649c-6.633,0-14.171,7.119-18.699,14.18c-0.374,0.581-0.205,1.353,0.376,1.724
		c0.581,0.381,1.355,0.205,1.729-0.376c4.924-7.671,11.746-13.027,16.595-13.027c4.972,0,12.149,5.771,17.061,13.721
		c4.224,6.831,5.646,13.467,3.721,17.324c-1.841,3.667-5.881,2.817-12.328,0.977c-2.873-0.82-5.847-1.67-8.453-1.67
		c-2.319,0-4.849,0.664-7.241,1.348c-0.664,0.19-1.049,0.879-0.859,1.543s0.872,1.055,1.543,0.859c2.223-0.63,4.561-1.25,6.558-1.25
		c2.258,0,5.058,0.801,7.768,1.572c2.817,0.806,5.819,1.665,8.493,1.665c2.816,0,5.27-0.952,6.756-3.931
		c2.346-4.692,0.916-12.075-3.83-19.756C128.092,74.135,120.381,66.649,113.489,66.649z"/>
	<path fill="#FFFFFF" d="M136.431,47.489c1.737-8.717-1.329-16.409-7.022-17.598c-5.416-1.131-11.619,4.666-13.316,13.477
		c-1.764,8.711,1.313,16.486,7.022,17.598C129.287,62.167,134.834,55.502,136.431,47.489z M123.612,58.515
		c-4.185-0.845-6.505-7.554-5.07-14.648c1.513-7.262,6.262-12.366,10.368-11.523c4.181,0.857,6.505,7.554,5.07,14.648
		C132.542,54.086,127.813,59.345,123.612,58.515z"/>
	<path fill="#FFFFFF" d="M147.898,56.337c-4.523-2.533-10.742,0.976-14.139,6.821c-3.756,6.313-3.431,13.196,0.734,15.688
		c4.09,2.445,10.277-0.448,14.14-6.826C152.613,65.448,151.801,58.521,147.898,56.337z M146.485,70.741
		c-3.319,5.297-7.95,7.552-10.712,5.957c-2.889-1.67-2.805-7.324,0.135-12.261c1.705-3.25,7.081-8.125,10.712-5.952
		C149.894,60.443,148.916,66.862,146.485,70.741z"/>
</g>
</svg>
