<?xml version="1.0" encoding="utf-8"?>
<!-- Generator: Adobe Illustrator 16.0.0, SVG Export Plug-In . SVG Version: 6.00 Build 0)  -->
<!DOCTYPE svg PUBLIC "-//W3C//DTD SVG 1.1//EN" "http://www.w3.org/Graphics/SVG/1.1/DTD/svg11.dtd">
<svg version="1.1" id="Layer_1" xmlns="http://www.w3.org/2000/svg" xmlns:xlink="http://www.w3.org/1999/xlink" x="0px" y="0px"
	 width="30px" height="30px" viewBox="0 0 30 30" enable-background="new 0 0 30 30" xml:space="preserve">
<path fill="#FFFFFF" d="M15.519,2.569c-7.18,0-13,5.821-13,13c0,7.18,5.82,13,13,13s13-5.819,13-13
	C28.519,8.39,22.698,2.569,15.519,2.569z M18.941,14.396l-0.111,1.209h-2.285c0,3.448,0,7.7,0,7.7h-3.08c0,0,0-4.21,0-7.7h-1.54
	v-1.219v-1.86h1.527v-1.392c0-1.26,0.6-3.228,3.241-3.228l2.379,0.01v2.639c0,0-1.447,0-1.728,0s-0.681,0.14-0.681,0.74v1.231h2.447
	L18.941,14.396z"/>
</svg>
