<?xml version="1.0" encoding="utf-8"?>
<!-- Generator: Adobe Illustrator 16.0.0, SVG Export Plug-In . SVG Version: 6.00 Build 0)  -->
<!DOCTYPE svg PUBLIC "-//W3C//DTD SVG 1.1//EN" "http://www.w3.org/Graphics/SVG/1.1/DTD/svg11.dtd">
<svg version="1.1" id="Layer_1" xmlns="http://www.w3.org/2000/svg" xmlns:xlink="http://www.w3.org/1999/xlink" x="0px" y="0px"
	 width="30px" height="30px" viewBox="0 0 30 30" enable-background="new 0 0 30 30" xml:space="preserve">
<circle fill="none" stroke="#FFFFFF" stroke-miterlimit="10" cx="15" cy="15" r="13"/>
<g>
	<g>
		<defs>
			<rect id="SVGID_1_" x="6.25" y="5.88" width="17.5" height="16.126"/>
		</defs>
		<clipPath id="SVGID_2_">
			<use xlink:href="#SVGID_1_"  overflow="visible"/>
		</clipPath>
		<path clip-path="url(#SVGID_2_)" fill="#FFFFFF" d="M22.627,13.576h-0.706v-2.114c0-0.17-0.077-0.333-0.211-0.444
			c-1.049-0.854-2.213-1.288-3.456-1.288c-0.044,0-0.085,0-0.129,0.002c0.02-0.139,0.03-0.281,0.03-0.427
			c0-1.892-1.533-3.426-3.429-3.426c-1.893,0-3.426,1.534-3.426,3.426c0,0.146,0.011,0.288,0.028,0.424
			c-1.203,0.027-2.336,0.458-3.357,1.29c-0.134,0.108-0.216,0.271-0.216,0.444v2.114H7.398c-0.634,0-1.148,0.526-1.148,1.155v1.142
			c0,0.63,0.514,1.128,1.148,1.128h0.356v4.131c0,0.219,0.128,0.414,0.323,0.513c0.08,0.037,0.17,0.06,0.258,0.06
			c0.121,0,0.243-0.037,0.342-0.115c0.011-0.005,1.087-0.793,2.777-0.793c0.98,0,1.975,0.255,2.941,0.793
			c0.34,0.189,0.759,0.078,0.898,0c0.973-0.526,1.961-0.793,2.941-0.793c1.662,0,2.758,0.782,2.777,0.797
			c0.102,0.074,0.22,0.111,0.339,0.111c0.086,0,0.176-0.022,0.256-0.06c0.191-0.099,0.314-0.294,0.314-0.513v-4.131h0.706
			c0.631,0,1.134-0.498,1.134-1.128v-1.142C23.759,14.102,23.26,13.576,22.627,13.576L22.627,13.576z M11.467,19.656
			c-1.07,0-1.958,0.263-2.542,0.523v-3.176h0.756c0.63,0,1.123-0.498,1.123-1.128v-1.142c0-0.629-0.493-1.159-1.123-1.159H8.925
			v-1.833c0.751-0.578,1.625-0.871,2.517-0.871c1.074,0,1.983,0.425,2.479,0.712c0.063,0.061,0.101,0.124,0.186,0.189v8.416
			C13.228,19.834,12.352,19.656,11.467,19.656L11.467,19.656z M20.793,20.18c-0.628-0.261-1.474-0.523-2.545-0.523
			c-0.881,0-1.801,0.178-2.637,0.53v-8.493c0.417-0.271,1.438-0.822,2.66-0.822c0.89,0,1.729,0.293,2.522,0.871v1.833h-0.449
			c-0.633,0-1.14,0.526-1.14,1.159v1.142c0,0.63,0.507,1.128,1.14,1.128h0.449V20.18z M20.793,20.18"/>
	</g>
</g>
</svg>
