<?xml version="1.0" encoding="utf-8"?>
<!-- Generator: Adobe Illustrator 16.0.0, SVG Export Plug-In . SVG Version: 6.00 Build 0)  -->
<!DOCTYPE svg PUBLIC "-//W3C//DTD SVG 1.1//EN" "http://www.w3.org/Graphics/SVG/1.1/DTD/svg11.dtd">
<svg version="1.1" id="Layer_1" xmlns="http://www.w3.org/2000/svg" xmlns:xlink="http://www.w3.org/1999/xlink" x="0px" y="0px"
	 width="200px" height="160px" viewBox="0 0 200 160" enable-background="new 0 0 200 160" xml:space="preserve">
<g>
	<path fill="#FFFFFF" d="M63.054,115.082c-3.186,5.157-4.125,10.15-2.522,13.368c1.01,2.026,3.116,4.121,10.496,1.706
		c1.726-0.564,3.552-1.016,4.971-1.016c1.421,0,3.225,0.516,4.973,1.016c3.762,1.075,8.438,2.403,10.496-1.706
		c1.606-3.216,0.664-8.211-2.522-13.365c-3.066-4.961-8.259-9.969-12.947-9.969C71.313,105.116,66.121,110.121,63.054,115.082z
		 M75.999,107.617c3.125,0,7.676,3.693,10.82,8.781c2.686,4.346,3.611,8.536,2.412,10.934c-1.052,2.111-3.564,1.57-7.573,0.42
		c-1.912-0.547-3.889-1.111-5.659-1.111s-3.745,0.564-5.657,1.111c-4.014,1.15-6.516,1.689-7.573-0.42
		c-1.199-2.397-0.273-6.588,2.412-10.934C68.325,111.311,72.876,107.617,75.999,107.617z"/>
	<path fill="#FFFFFF" d="M83.824,100.337c4.691,1.143,8.482-4.774,9.346-9.283c1.195-6.239-0.981-11.337-4.995-12.19
		c-4.556-0.968-8.597,4.574-9.343,9.287C77.952,91.854,78.537,99.049,83.824,100.337z M81.283,88.646c0,0,0,0,0-0.002
		c0.967-4.916,4.149-7.81,6.394-7.33c2.553,0.547,3.901,4.269,3.042,9.241c-0.598,3.462-3.37,7.986-6.396,7.329
		C81.294,97.229,80.494,92.083,81.283,88.646z"/>
	<path fill="#FFFFFF" d="M68.167,100.337c5.287-1.288,5.872-8.483,4.993-12.187c-0.746-4.713-4.788-10.255-9.343-9.287
		c-4.014,0.853-6.189,5.951-4.995,12.19C59.685,95.562,63.477,101.479,68.167,100.337z M64.315,81.314
		c2.244-0.48,5.427,2.414,6.394,7.33c0,0.002,0,0.002,0,0.002c0.789,3.437-0.012,8.582-3.04,9.238
		c-3.026,0.657-5.798-3.867-6.396-7.329C60.415,85.583,61.762,81.861,64.315,81.314z"/>
	<path fill="#FFFFFF" d="M60.088,111.939c2.632-1.567,2.884-5.803,0.605-9.662c-1.726-2.924-5.537-5.943-8.784-4.07
		c-2.577,1.487-2.934,5.57-0.603,9.662C52.988,110.82,56.959,113.801,60.088,111.939z M53.189,100.355
		c1.744-0.99,4.326,1.425,5.357,3.201c1.657,2.855,1.47,5.521,0.263,6.234c-1.253,0.739-3.794-0.543-5.354-3.201
		C51.819,103.8,51.973,101.048,53.189,100.355z"/>
	<path fill="#FFFFFF" d="M91.305,102.277c-2.278,3.859-2.027,8.095,0.605,9.662c3.129,1.861,7.1-1.119,8.782-4.07
		c2.331-4.092,1.975-8.175-0.603-9.662C96.842,96.334,93.031,99.354,91.305,102.277z M98.81,100.355
		c1.216,0.692,1.37,3.444-0.266,6.234c-1.56,2.658-4.101,3.94-5.354,3.201c-1.207-0.713-1.394-3.379,0.264-6.234
		C94.485,101.78,97.067,99.365,98.81,100.355z"/>
	<path fill="#FFFFFF" d="M113.056,65.079c-3.187,5.157-4.125,10.15-2.522,13.368c1.011,2.027,3.117,4.122,10.496,1.707
		c1.727-0.564,3.553-1.016,4.971-1.016c1.421,0,3.225,0.515,4.973,1.016c3.763,1.074,8.438,2.402,10.496-1.707
		c1.606-3.215,0.664-8.211-2.521-13.365c-3.066-4.961-8.26-9.969-12.947-9.969C121.314,55.113,116.122,60.118,113.056,65.079z
		 M126,57.613c3.125,0,7.676,3.694,10.82,8.782c2.686,4.346,3.611,8.536,2.412,10.934c-1.053,2.112-3.564,1.57-7.573,0.42
		c-1.911-0.547-3.89-1.111-5.659-1.111s-3.745,0.564-5.656,1.111c-4.014,1.15-6.517,1.689-7.574-0.42
		c-1.198-2.398-0.273-6.587,2.412-10.934C118.326,61.307,122.877,57.613,126,57.613z"/>
	<path fill="#FFFFFF" d="M133.824,50.334c4.691,1.143,8.482-4.774,9.346-9.283c1.195-6.239-0.98-11.337-4.994-12.19
		c-4.557-0.968-8.598,4.574-9.344,9.288C127.953,41.852,128.538,49.046,133.824,50.334z M131.283,38.645c0,0,0,0,0-0.002
		c0.967-4.916,4.15-7.81,6.395-7.33c2.553,0.546,3.9,4.268,3.041,9.241c-0.598,3.462-3.369,7.986-6.396,7.33
		S130.494,42.081,131.283,38.645z"/>
	<path fill="#FFFFFF" d="M118.168,50.334c5.287-1.288,5.872-8.482,4.993-12.186c-0.746-4.714-4.788-10.256-9.343-9.288
		c-4.014,0.853-6.189,5.952-4.996,12.19C109.686,45.561,113.478,51.478,118.168,50.334z M114.316,31.312
		c2.244-0.48,5.426,2.414,6.394,7.33c0,0.002,0,0.002,0,0.002c0.788,3.437-0.013,8.582-3.04,9.239
		c-3.025,0.657-5.799-3.868-6.396-7.33C110.415,35.581,111.763,31.859,114.316,31.312z"/>
	<path fill="#FFFFFF" d="M110.09,61.937c2.632-1.567,2.883-5.803,0.605-9.661c-1.727-2.925-5.537-5.943-8.785-4.07
		c-2.577,1.487-2.934,5.569-0.603,9.661C102.989,60.818,106.961,63.799,110.09,61.937z M103.189,50.354
		c1.744-0.991,4.326,1.424,5.357,3.201c1.656,2.855,1.471,5.521,0.264,6.233c-1.254,0.74-3.795-0.542-5.354-3.201
		C101.82,53.798,101.974,51.046,103.189,50.354z"/>
	<path fill="#FFFFFF" d="M141.306,52.276c-2.278,3.858-2.026,8.094,0.606,9.661c3.128,1.862,7.1-1.119,8.781-4.07
		c2.331-4.092,1.975-8.174-0.604-9.661C146.843,46.333,143.032,49.351,141.306,52.276z M148.811,50.354
		c1.217,0.692,1.371,3.444-0.266,6.233c-1.56,2.659-4.101,3.941-5.354,3.201c-1.207-0.713-1.395-3.378,0.263-6.233
		C144.485,51.778,147.067,49.363,148.811,50.354z"/>
</g>
</svg>
