<?xml version="1.0" encoding="utf-8"?>
<!-- Generator: Adobe Illustrator 16.0.0, SVG Export Plug-In . SVG Version: 6.00 Build 0)  -->
<!DOCTYPE svg PUBLIC "-//W3C//DTD SVG 1.1//EN" "http://www.w3.org/Graphics/SVG/1.1/DTD/svg11.dtd">
<svg version="1.1" id="Layer_1" xmlns="http://www.w3.org/2000/svg" xmlns:xlink="http://www.w3.org/1999/xlink" x="0px" y="0px"
	 width="30px" height="30px" viewBox="0 0 30 30" enable-background="new 0 0 30 30" xml:space="preserve">
<g>
	<circle id="XMLID_30_" fill="#E62B33" cx="14.74" cy="15.569" r="13"/>
	<g>
		<path id="XMLID_27_" fill="#FFFFFF" d="M20.268,15.324c-0.094,0-0.186,0-0.281,0c0-0.019,0-0.038,0-0.055c0-0.073,0-0.135,0-0.195
			c0.001-0.357,0.005-0.714-0.003-1.072c-0.002-0.058-0.062-0.164-0.098-0.165c-0.327-0.013-0.653-0.008-0.999-0.008
			c0,0.428,0,0.834,0,1.248c0,0.082,0,0.163,0,0.244c-0.5,0-0.981,0-1.497,0c0,0.112-0.003,0.188,0.001,0.263
			c0.011,0.271,0.023,0.541,0.035,0.811c0.265,0.009,0.528,0.021,0.793,0.026c0.22,0.004,0.44,0.001,0.686,0.001
			c0,0.514,0,0.993,0,1.472c0.366,0,0.708,0,1.079,0c0-0.488,0-0.968,0-1.476c0.508,0,0.987,0,1.476,0c0-0.284,0-0.553,0-0.827
			c0-0.088,0-0.177,0-0.267C21.062,15.324,20.669,15.324,20.268,15.324z"/>
		<path id="XMLID_26_" fill="#FFFFFF" d="M16.03,15.199c-0.933,0.012-1.865,0.005-2.797,0.005c-0.266,0-0.533-0.004-0.799,0.006
			c-0.051,0.001-0.141,0.062-0.141,0.097c-0.01,0.537-0.007,1.075-0.007,1.641c0.769,0,1.514,0,2.284,0
			c-0.03,0.11-0.049,0.19-0.075,0.269c-0.351,1.038-1.423,1.553-2.573,1.364c-1.428-0.233-2.316-1.558-2.062-2.988
			c0.036-0.202,0.099-0.394,0.181-0.575c0.472-1.038,1.64-1.668,2.795-1.416c0.414,0.09,0.768,0.291,1.073,0.557
			c0.415-0.418,0.818-0.825,1.249-1.259c-0.028-0.022-0.068-0.05-0.105-0.081c-1.007-0.851-2.165-1.164-3.462-0.951
			c-1.864,0.305-3.205,1.772-3.505,3.487c-0.127,0.733-0.067,1.511,0.225,2.263c0.709,1.821,2.541,2.931,4.498,2.716
			c0.955-0.105,1.809-0.45,2.476-1.161c0.983-1.047,1.236-2.314,1.08-3.701C16.337,15.24,16.243,15.196,16.03,15.199z"/>
	</g>
</g>
</svg>
