<?xml version="1.0" encoding="utf-8"?>
<!-- Generator: Adobe Illustrator 16.0.0, SVG Export Plug-In . SVG Version: 6.00 Build 0)  -->
<!DOCTYPE svg PUBLIC "-//W3C//DTD SVG 1.1//EN" "http://www.w3.org/Graphics/SVG/1.1/DTD/svg11.dtd">
<svg version="1.1" id="Layer_1" xmlns="http://www.w3.org/2000/svg" xmlns:xlink="http://www.w3.org/1999/xlink" x="0px" y="0px"
	 width="30px" height="30px" viewBox="0 0 30 30" enable-background="new 0 0 30 30" xml:space="preserve">
<path fill="#FFFFFF" d="M14.74,2.569c-7.18,0-13,5.82-13,13c0,7.18,5.82,13,13,13c7.18,0,13-5.82,13-13
	C27.74,8.389,21.92,2.569,14.74,2.569z M15.284,19.173c-0.667,0.711-1.521,1.056-2.476,1.161c-1.957,0.215-3.789-0.895-4.498-2.716
	c-0.292-0.752-0.353-1.53-0.225-2.263c0.3-1.715,1.641-3.183,3.505-3.487c1.297-0.212,2.455,0.1,3.462,0.951
	c0.037,0.031,0.077,0.059,0.105,0.081c-0.43,0.434-0.833,0.841-1.249,1.259c-0.305-0.266-0.659-0.467-1.073-0.557
	c-1.155-0.253-2.323,0.377-2.795,1.416c-0.082,0.181-0.146,0.373-0.181,0.575c-0.254,1.431,0.635,2.755,2.062,2.988
	c1.149,0.188,2.222-0.326,2.573-1.364c0.026-0.078,0.045-0.158,0.075-0.269c-0.77,0-1.515,0-2.284,0
	c0-0.566-0.003-1.104,0.007-1.641c0-0.035,0.09-0.096,0.141-0.097c0.266-0.01,0.533-0.006,0.799-0.006
	c0.932,0,1.864,0.007,2.797-0.005c0.213-0.003,0.307,0.041,0.333,0.272C16.52,16.858,16.267,18.126,15.284,19.173z M21.459,15.591
	c0,0.274,0,0.542,0,0.827c-0.488,0-0.968,0-1.476,0c0,0.508,0,0.987,0,1.476c-0.371,0-0.713,0-1.079,0c0-0.479,0-0.958,0-1.472
	c-0.245,0-0.466,0.003-0.686-0.001c-0.265-0.006-0.528-0.018-0.793-0.026c-0.012-0.271-0.024-0.541-0.035-0.811
	c-0.004-0.075-0.001-0.151-0.001-0.263c0.516,0,0.997,0,1.497,0c0-0.081,0-0.162,0-0.244c0-0.413,0-0.819,0-1.248
	c0.346,0,0.672-0.005,0.999,0.008c0.035,0.001,0.096,0.107,0.098,0.165c0.008,0.357,0.004,0.714,0.003,1.072
	c0,0.061,0,0.122,0,0.195c0,0.018,0,0.036,0,0.055c0.096,0,0.188,0,0.281,0c0.401,0,0.794,0,1.191,0
	C21.459,15.415,21.459,15.503,21.459,15.591z"/>
</svg>
