<?xml version="1.0" encoding="utf-8"?>
<!-- Generator: Adobe Illustrator 16.0.0, SVG Export Plug-In . SVG Version: 6.00 Build 0)  -->
<!DOCTYPE svg PUBLIC "-//W3C//DTD SVG 1.1//EN" "http://www.w3.org/Graphics/SVG/1.1/DTD/svg11.dtd">
<svg version="1.1" id="Layer_1" xmlns="http://www.w3.org/2000/svg" xmlns:xlink="http://www.w3.org/1999/xlink" x="0px" y="0px"
	 width="200px" height="160px" viewBox="0 0 200 160" enable-background="new 0 0 200 160" xml:space="preserve">
<g>
	<path fill="#FFFFFF" d="M99.998,80.104c-4.685,0-9.878,5.005-12.944,9.966c-3.186,5.156-4.125,10.149-2.522,13.366
		c1.01,2.027,3.116,4.121,10.496,1.707c1.726-0.564,3.552-1.016,4.971-1.016c1.421,0,3.225,0.515,4.973,1.016
		c3.763,1.074,8.438,2.402,10.496-1.707c1.606-3.215,0.664-8.21-2.522-13.364C109.878,85.111,104.686,80.104,99.998,80.104z
		 M113.23,102.318c-1.053,2.112-3.564,1.57-7.573,0.42c-1.912-0.547-3.89-1.11-5.659-1.11c-1.77,0-3.745,0.563-5.657,1.11
		c-4.014,1.15-6.516,1.689-7.573-0.42c-1.199-2.397-0.273-6.587,2.412-10.933c3.145-5.088,7.695-8.781,10.818-8.781
		c3.125,0,7.676,3.693,10.82,8.781C113.504,95.731,114.429,99.921,113.23,102.318z"/>
	<path fill="#FFFFFF" d="M112.174,53.853c-4.556-0.968-8.598,4.573-9.343,9.287c-0.88,3.703-0.294,10.897,4.992,12.186
		c4.69,1.143,8.482-4.774,9.346-9.282C118.363,59.804,116.188,54.706,112.174,53.853z M114.718,65.545
		c-0.598,3.461-3.37,7.985-6.396,7.329c-3.027-0.657-3.828-5.802-3.039-9.238c0,0,0,0,0-0.003c0.967-4.915,4.149-7.809,6.394-7.329
		C114.229,56.85,115.576,60.572,114.718,65.545z"/>
	<path fill="#FFFFFF" d="M92.167,75.325c5.287-1.288,5.872-8.482,4.993-12.186c-0.746-4.714-4.788-10.255-9.343-9.287
		c-4.014,0.854-6.189,5.951-4.995,12.19C83.685,70.551,87.476,76.468,92.167,75.325z M88.314,56.304
		c2.244-0.479,5.427,2.414,6.394,7.329c0,0.003,0,0.003,0,0.003c0.789,3.437-0.012,8.581-3.04,9.238
		c-3.026,0.656-5.799-3.868-6.396-7.329C84.414,60.572,85.761,56.85,88.314,56.304z"/>
	<path fill="#FFFFFF" d="M75.909,73.196c-2.577,1.486-2.934,5.568-0.603,9.66c1.682,2.951,5.653,5.932,8.782,4.07
		c2.632-1.567,2.884-5.802,0.605-9.661C82.967,74.342,79.156,71.323,75.909,73.196z M82.545,78.545
		c1.657,2.855,1.471,5.521,0.264,6.233c-1.253,0.739-3.794-0.543-5.354-3.201c-1.636-2.789-1.482-5.541-0.266-6.232
		C78.932,74.354,81.514,76.769,82.545,78.545z"/>
	<path fill="#FFFFFF" d="M124.691,82.856c2.332-4.092,1.975-8.174-0.603-9.66c-3.247-1.873-7.058,1.146-8.784,4.069
		c-2.278,3.859-2.027,8.094,0.605,9.661C119.039,88.788,123.01,85.808,124.691,82.856z M117.453,78.545
		c1.031-1.776,3.613-4.191,5.356-3.2c1.216,0.691,1.37,3.443-0.267,6.232c-1.559,2.658-4.101,3.94-5.354,3.201
		C115.982,84.065,115.796,81.4,117.453,78.545z"/>
	<path fill="#FFFFFF" d="M85,131.25h30c0.69,0,1.25-0.562,1.25-1.25v-20.947c0-0.688-0.56-1.25-1.25-1.25
		c-0.691,0-1.25,0.562-1.25,1.25v19.697h-27.5v-19.697c0-0.688-0.559-1.25-1.25-1.25s-1.25,0.562-1.25,1.25V130
		C83.75,130.688,84.309,131.25,85,131.25z"/>
	<path fill="#FFFFFF" d="M119.25,96.25H150c0.69,0,1.25-0.562,1.25-1.25V65c0-0.688-0.56-1.25-1.25-1.25h-28.901
		c-0.69,0-1.25,0.562-1.25,1.25s0.56,1.25,1.25,1.25h27.651v27.5h-29.5c-0.69,0-1.25,0.562-1.25,1.25S118.56,96.25,119.25,96.25z"/>
	<path fill="#FFFFFF" d="M50,96.25h30.75C81.44,96.25,82,95.688,82,95s-0.559-1.25-1.25-1.25h-29.5v-27.5h27.649
		c0.691,0,1.25-0.562,1.25-1.25s-0.559-1.25-1.25-1.25H50c-0.691,0-1.25,0.562-1.25,1.25v30C48.75,95.688,49.309,96.25,50,96.25z"/>
	<path fill="#FFFFFF" d="M115,52.153c0.69,0,1.25-0.562,1.25-1.25V30c0-0.688-0.56-1.25-1.25-1.25H85c-0.691,0-1.25,0.562-1.25,1.25
		v20.903c0,0.688,0.559,1.25,1.25,1.25s1.25-0.562,1.25-1.25V31.25h27.5v19.653C113.75,51.592,114.309,52.153,115,52.153z"/>
</g>
</svg>
