<?xml version="1.0" encoding="utf-8"?>
<!-- Generator: Adobe Illustrator 16.0.0, SVG Export Plug-In . SVG Version: 6.00 Build 0)  -->
<!DOCTYPE svg PUBLIC "-//W3C//DTD SVG 1.1//EN" "http://www.w3.org/Graphics/SVG/1.1/DTD/svg11.dtd">
<svg version="1.1" id="Layer_1" xmlns="http://www.w3.org/2000/svg" xmlns:xlink="http://www.w3.org/1999/xlink" x="0px" y="0px"
	 width="30px" height="30px" viewBox="0 0 30 30" enable-background="new 0 0 30 30" xml:space="preserve">
<path fill="#FFFFFF" d="M14.741,2c-7.18,0-13,5.82-13,13s5.821,13,13,13c7.179,0,13-5.82,13-13S21.92,2,14.741,2z M20.865,12.644
	c0.006,0.133,0.008,0.269,0.008,0.402c0,0.618-0.073,1.25-0.215,1.877c-0.801,3.549-3.836,6.971-8.774,6.971
	c-1.783,0-3.444-0.515-4.844-1.397c0.248,0.029,0.499,0.044,0.754,0.044c1.481,0,2.842-0.497,3.924-1.332
	c-1.382-0.024-2.548-0.924-2.952-2.159c0.194,0.036,0.392,0.057,0.594,0.057c0.29,0,0.567-0.039,0.833-0.109
	c-1.064-0.212-1.933-0.948-2.319-1.923c-0.138-0.35-0.216-0.729-0.216-1.127c0-0.013,0-0.026,0-0.039
	c0.426,0.232,0.914,0.373,1.431,0.389c-0.847-0.558-1.406-1.51-1.406-2.588c0-0.57,0.157-1.104,0.428-1.563
	c1.558,1.881,3.886,3.12,6.511,3.25c-0.053-0.229-0.081-0.464-0.081-0.708c0-1.717,1.414-3.11,3.159-3.11
	c0.908,0,1.729,0.378,2.306,0.982c0.72-0.14,1.396-0.398,2.007-0.755c-0.236,0.727-0.736,1.336-1.39,1.721
	c0.64-0.075,1.248-0.241,1.814-0.489C22.018,11.658,21.481,12.206,20.865,12.644z"/>
</svg>
